<svg id="visual" viewBox="0 0 900 600" width="900" height="600" xmlns="http://www.w3.org/2000/svg" xmlns:xlink="http://www.w3.org/1999/xlink" version="1.1"><g transform="translate(446.12334878344467 317.70397141535307)"><path d="M75.6 -105.4C107.2 -81.2 148.2 -71.3 167.5 -46.3C186.7 -21.3 184.2 18.9 166.2 47.7C148.1 76.6 114.6 94.1 84.4 112.8C54.1 131.4 27 151.2 -2.7 155C-32.5 158.8 -65 146.5 -96 128.1C-126.9 109.6 -156.2 84.9 -167.3 53.6C-178.5 22.4 -171.5 -15.6 -162.6 -55.9C-153.8 -96.3 -143 -139.2 -115.6 -164.8C-88.2 -190.4 -44.1 -198.7 -11 -183.5C22 -168.3 44.1 -129.7 75.6 -105.4" fill="#0B1E2C"></path></g></svg>