<svg style="fill-rule:nonzero;clip-rule:evenodd;stroke-linecap:round;stroke-linejoin:round" viewBox="693.877 2504.65 206 206" xmlns="http://www.w3.org/2000/svg"><clipPath id="a"><path d="M693.877 2504.65h206v206h-206z"/></clipPath><g clip-path="url(#a)"><path d="M796.844 2504.66c-13.204.1-26.24 2.48-38.5 7.43-32.913 13.3-57.056 43.17-63 78.19a104 104 0 0 0 0 34.75c1.974 11.63 5.986 22.88 11.781 33.16a103.7 103.7 0 0 0 25.5 29.97 103.1 103.1 0 0 0 35.25 18.34c13.339 3.91 27.449 5.07 41.25 3.44 13.436-1.59 26.529-5.89 38.313-12.53 11.023-6.22 20.851-14.49 28.906-24.25 7.044-8.54 12.714-18.2 16.687-28.54a102.5 102.5 0 0 0 6.313-26.43c2.914-28.7-6.327-57.45-25.5-79-6.693-7.52-14.46-13.93-22.969-19.28a4.013 4.013 0 0 0-5.531 1.25 4.015 4.015 0 0 0 1.25 5.53c7.873 4.96 15.057 10.85 21.25 17.81 18.061 20.3 26.567 47.48 23.375 74.47a94.3 94.3 0 0 1-6.219 24.22 95.4 95.4 0 0 1-15.781 26.06 95.7 95.7 0 0 1-27.063 21.94c-10.509 5.71-22.091 9.41-33.968 10.81-12.734 1.51-25.756.45-38.063-3.16a95.1 95.1 0 0 1-33.687-17.87 95.6 95.6 0 0 1-23.094-28.03 94.6 94.6 0 0 1-10.375-30.82 95.8 95.8 0 0 1 .531-32.06c5.936-31.65 27.966-58.47 57.812-70.53 11.329-4.58 23.396-6.78 35.594-6.87a4.01 4.01 0 0 0 3.969-4.04 3.997 3.997 0 0 0-4.031-3.96" fill="#b465ff"/><g fill="#007aff"><path d="m739.369 2541.69 115.017.47-1.211 21.39-112.316.84zm3.555 46.95 107.452 1.39-1.516 21.72-104.446-.42z"/><path d="m853.231 2562.66-7.392 97.84-24.899 7.19 10.223-104.78zm-107.99 60.62 24.606-.24.973 18.69-22.602 18.68z"/><path d="m770.778 2641.73 25.872 8.17.504 23.7-48.936-13.19z"/><path d="m823.59 2641.73-26.94 8.37v23.5l24.29-5.91z"/></g><path d="M705.592 2607.65c0-50.42 40.87-91.29 91.285-91.29s91.285 40.87 91.285 91.29-40.869 91.28-91.285 91.28-91.285-40.86-91.285-91.28" fill="none" stroke="#007aff"/></g></svg>