<svg stroke-miterlimit="10" style="fill-rule:nonzero;clip-rule:evenodd;stroke-linecap:round;stroke-linejoin:round" viewBox="687.672 2490.64 195.286 206" xml:space="preserve" xmlns="http://www.w3.org/2000/svg" xmlns:vectornator="http://vectornator.io"><clipPath id="a"><path d="M687.672 2490.64h195.286v206H687.672z"/></clipPath><g vectornator:layerName="Layer"><g vectornator:layerName="Group 15" clip-path="url(#a)"><path d="M790.625 2490.62c-17.779.15-34.984 4.5-50.5 13.26-12.945 7.3-24.258 17.43-32.969 29.46a102.8 102.8 0 0 0-17.031 37.88 104 104 0 0 0-1 39.81c1.974 11.63 5.986 22.88 11.781 33.16 5.677 10.06 13.079 19.14 21.75 26.78 8.712 7.67 18.706 13.87 29.469 18.22 28.8 11.63 61.81 9.52 88.875-5.66 13.691-7.68 25.295-18.43 34.344-31.22 1.275-1.8.835-4.32-.969-5.59a3.98 3.98 0 0 0-5.563.97c-8.73 12.34-20.017 22.6-33.374 29.75-25.591 13.69-56.582 14.87-83.157 3.12-10.24-4.52-19.648-10.89-27.687-18.68-7.664-7.43-14.089-16.15-18.875-25.69a94.7 94.7 0 0 1-9.375-31.25c-1.446-12.22-.542-24.7 2.718-36.56 3.261-11.87 8.883-23.05 16.407-32.79a95.9 95.9 0 0 1 29.937-25.5c13.935-7.57 29.487-11.34 45.313-11.47a3.994 3.994 0 0 0 3.969-4.03c-.018-2.21-1.854-3.98-4.063-3.97" fill="#b465ff" vectornator:layerName="Curve 5"/><path d="M699.386 2593.64c0-50.42 40.87-91.29 91.286-91.29s91.286 40.87 91.286 91.29c0 50.41-40.87 91.28-91.286 91.28s-91.286-40.87-91.286-91.28Z" fill="none" stroke="#007aff" stroke-linecap="butt" stroke-width="2" vectornator:layerName="Oval 2"/><g vectornator:layerName="Group 13" stroke-linecap="butt" stroke-width="8"><path d="M743.403 2634.41s13.523-95.26 14.533-102c1.01-6.75 4.136-7.09 8.506.6 4.585 8.06 15.16 27.69 15.16 27.69" fill="#0058b7" stroke="#0058b7" vectornator:layerName="Curve 6"/><path d="M743.589 2634.56s39.451-77.5 42.482-83.55 5.488-6.32 8.894.29c3.405 6.62 10.559 20.21 10.559 20.21" fill="#0069dc" stroke="#0069dc" vectornator:layerName="Curve 5"/><path d="M743.403 2634.41s29.117 17.89 38.684 23.17c9.568 5.28 17.424.74 23.228-2.89 8.398-5.25 32.626-19.84 32.626-19.84s-10.032-67.95-11.286-76.66-3.875-4.5-7.91-.35c-4.034 4.16-75.342 76.57-75.342 76.57Z" fill="#007aff" stroke="#007aff" vectornator:layerName="Curve 4"/></g></g></g></svg>