<svg stroke-miterlimit="10" style="fill-rule:nonzero;clip-rule:evenodd;stroke-linecap:round;stroke-linejoin:round" viewBox="833.602 2450.51 195.173 206" xml:space="preserve" xmlns="http://www.w3.org/2000/svg" xmlns:vectornator="http://vectornator.io"><clipPath id="a"><path d="M833.602 2450.51h195.173v206H833.602z"/></clipPath><g vectornator:layerName="Layer"><g vectornator:layerName="Group 12" clip-path="url(#a)"><path d="M845.203 2553.51c0-50.42 40.87-91.29 91.286-91.29s91.291 40.87 91.291 91.29c0 50.41-40.875 91.28-91.291 91.28s-91.286-40.87-91.286-91.28Z" fill="none" stroke="#007aff" stroke-linecap="butt" stroke-width="2" vectornator:layerName="Oval 1"/><path d="M936.562 2450.5c-15.452.12-30.679 3.44-44.624 10.16a103.5 103.5 0 0 0-30.469 22.37 103.4 103.4 0 0 0-19.781 30.38c-3.98 9.4-6.531 19.4-7.563 29.56a104.1 104.1 0 0 0 1.937 32.97c6.524 29.41 26.225 54.96 52.907 68.9a102.4 102.4 0 0 0 37.093 11.13c13.604 1.38 27.479.07 40.563-3.91 15.641-4.76 29.819-13.29 41.625-24.56 1.6-1.53 1.65-4.06.13-5.66a4.01 4.01 0 0 0-5.66-.12c-11.277 10.76-24.864 18.82-39.876 23.12-12.658 3.64-26.08 4.56-39.125 2.78-12.337-1.67-24.321-5.79-35.063-12.09-23.546-13.8-40.404-37.6-45.437-64.44a95.7 95.7 0 0 1-.75-30.47 94.6 94.6 0 0 1 7.843-26.9 95.43 95.43 0 0 1 46.5-46.5c12.508-5.78 26.06-8.61 39.813-8.72a4 4 0 0 0-.063-8" fill="#b465ff" vectornator:layerName="Curve 4"/><g vectornator:layerName="Group 10" fill="#007aff"><path d="M897.75 2484.38c-1.536 0-3.078.57-4.25 1.74a5.98 5.98 0 0 0 0 8.47c24.735 24.74 49.484 49.49 74.219 74.22a5.97 5.97 0 0 0 8.469 0c2.343-2.34 2.343-6.15 0-8.5-24.736-24.73-49.453-49.45-74.188-74.19a5.95 5.95 0 0 0-4.25-1.74" vectornator:layerName="Line 2"/><path d="M929 2516.09c-3.314 0-6 2.69-6 6v93.32c0 3.31 2.686 6 6 6s6-2.69 6-6v-93.32c0-3.31-2.686-6-6-6" vectornator:layerName="Line 3"/><path d="M914.132 2609.77c0-8.22 6.662-14.88 14.88-14.88s14.88 6.66 14.88 14.88-6.662 14.88-14.88 14.88-14.88-6.66-14.88-14.88" vectornator:layerName="Oval 2"/><path d="M957.474 2565.92c0-8.22 6.662-14.88 14.88-14.88s14.88 6.66 14.88 14.88c0 8.21-6.662 14.88-14.88 14.88s-14.88-6.67-14.88-14.88" vectornator:layerName="Oval 3"/><path d="M913.132 2522.08c0-8.21 6.662-14.88 14.88-14.88s14.88 6.67 14.88 14.88c0 8.22-6.662 14.88-14.88 14.88s-14.88-6.66-14.88-14.88" vectornator:layerName="Oval 4"/></g></g></g></svg>