<svg stroke-miterlimit="10" style="fill-rule:nonzero;clip-rule:evenodd;stroke-linecap:round;stroke-linejoin:round" viewBox="437.203 3094.52 205.594 205.594"><clipPath id="a"><path d="M437.203 3094.52h205.594v205.594H437.203z"/></clipPath><g clip-path="url(#a)"><path d="M526.229 3152.28v84.74" fill="none" stroke="#007aff" stroke-linecap="butt" stroke-width="14"/><path d="m493.683 3215.91 39.564 9.5.019 16.95-39.786-10.37zm87.476 1.52-37.334 7.98-.019 16.95 36.525-9.42z" fill="#007aff"/><path d="m583.108 3189.82-11.696.85-1.4 29.25 11.147-2.49z" fill="#007aff"/><path d="m571.42 3190.67-15.21 1.24v16.58l14.724-2.17zm15.1-38.39h-30.31v15.52l30.228.23zm-30.337 0h-12.377v57.97l12.404-1.74z" fill="#007aff"/><path d="M448.714 3197.32c0-50.42 40.87-91.29 91.286-91.29s91.286 40.87 91.286 91.29c0 50.41-40.87 91.28-91.286 91.28s-91.286-40.87-91.286-91.28Z" fill="none" stroke="#007aff" stroke-linecap="butt" stroke-width="2"/><path d="M539.969 3094.53c-5.808.05-11.583.47-17.313 1.44-15.418 2.62-30.175 8.83-42.844 18a103.5 103.5 0 0 0-30.968 35.81c-6.823 13.05-10.755 27.54-11.5 42.25-.699 13.78 1.348 27.66 6.094 40.63a102.9 102.9 0 0 0 19.374 32.56 103.5 103.5 0 0 0 28.188 22.5 102.4 102.4 0 0 0 29.969 10.62 103.7 103.7 0 0 0 31.25 1.07c32.969-3.9 62.32-23.95 78.156-53.1 8.179-15.05 12.301-31.86 12.437-48.97a4 4 0 1 0-8-.06c-.152 19.52-5.859 38.25-17.062 54.28-8.419 12.05-19.646 22.11-32.562 29.13a94.7 94.7 0 0 1-38.688 11.22c-12.719.85-25.581-.85-37.625-5.03a95.1 95.1 0 0 1-30.344-17.38 95.3 95.3 0 0 1-21.156-25.66 94.3 94.3 0 0 1-10.25-27.4c-2.042-9.98-2.446-20.29-1.25-30.41 3.596-30.4 22.059-57.46 48.937-72.06 13.906-7.55 29.427-11.31 45.219-11.44a4 4 0 0 0-.062-8" fill="#b465ff"/></g></svg>