<svg stroke-miterlimit="10" style="fill-rule:nonzero;clip-rule:evenodd;stroke-linecap:round;stroke-linejoin:round" viewBox="312.787 3039.83 195.084 206" xml:space="preserve" xmlns="http://www.w3.org/2000/svg" xmlns:vectornator="http://vectornator.io"><clipPath id="a"><path d="M312.787 3039.83h195.084v206H312.787z"/></clipPath><g vectornator:layerName="Layer"><g vectornator:layerName="Group 16" clip-path="url(#a)"><path d="M400.724 3097.99v82.2" fill="none" stroke="#007aff" stroke-linecap="butt" stroke-width="14" vectornator:layerName="Line 1"/><path d="m368.108 3161.62 39.564 9.51.019 16.94-39.785-10.37z" fill="#007aff" vectornator:layerName="Rectangle 6"/><path d="m456.743 3163.14-37.334 7.99-.019 16.94 36.525-9.42z" fill="#007aff" vectornator:layerName="Rectangle 7"/><path d="m458.692 3135.53-11.696.85-1.4 29.25 11.147-2.49z" fill="#007aff" vectornator:layerName="Rectangle 8"/><path d="m447.004 3136.38-15.21 1.24v16.58l14.724-2.17z" fill="#007aff" vectornator:layerName="Rectangle 10"/><path d="M462.104 3097.99h-30.31v15.53l30.228.23z" fill="#007aff" vectornator:layerName="Rectangle 11"/><path d="M431.767 3097.99H419.39v57.98l12.404-1.75z" fill="#007aff" vectornator:layerName="Rectangle 9"/><path d="M324.298 3143.03c0-50.42 40.87-91.29 91.286-91.29s91.286 40.87 91.286 91.29c0 50.41-40.87 91.28-91.286 91.28s-91.286-40.87-91.286-91.28Z" fill="none" stroke="#007aff" stroke-linecap="butt" stroke-width="2" vectornator:layerName="Oval 1"/><path d="M415.75 3039.81c-15.453.13-30.68 3.47-44.625 10.19a103.4 103.4 0 0 0-30.469 22.38c-8.311 8.86-15.048 19.15-19.781 30.34a102.8 102.8 0 0 0-7.563 29.59c-1.116 11-.455 22.15 1.938 32.94 6.524 29.41 26.224 54.99 52.906 68.94 11.521 6.02 24.162 9.78 37.094 11.09 13.603 1.38 27.479.08 40.562-3.9 15.641-4.76 29.819-13.27 41.626-24.54 1.597-1.52 1.65-4.05.124-5.65s-4.058-1.68-5.656-.16c-11.275 10.77-24.894 18.82-39.906 23.13-12.657 3.63-26.048 4.58-39.094 2.81a94.8 94.8 0 0 1-35.062-12.13c-23.546-13.8-40.404-37.56-45.438-64.4a95.9 95.9 0 0 1-.75-30.5 94.6 94.6 0 0 1 7.844-26.91c4.484-9.7 10.595-18.64 18.031-26.31A95.7 95.7 0 0 1 376 3056.53c12.507-5.78 26.059-8.61 39.812-8.72a3.993 3.993 0 0 0 3.969-4.03 4 4 0 0 0-4.031-3.97" fill="#b465ff" vectornator:layerName="Curve 2"/></g></g></svg>