<svg stroke-miterlimit="10" style="fill-rule:nonzero;clip-rule:evenodd;stroke-linecap:round;stroke-linejoin:round" viewBox="596.676 2524.42 318 318" xml:space="preserve" xmlns="http://www.w3.org/2000/svg" xmlns:vectornator="http://vectornator.io"><clipPath id="a"><path d="M596.676 2524.42h318v318h-318z"/></clipPath><g vectornator:layerName="Layer"><g vectornator:layerName="Group 6" clip-path="url(#a)"><g vectornator:layerName="Group 4"><g vectornator:layerName="Group 3"><path d="M712.566 2660.41c36.203-62.36 84.359-102 107.559-88.53 23.199 13.47 12.658 74.94-23.546 137.3s-84.359 101.99-107.559 88.53c-23.199-13.47-12.658-74.94 23.546-137.3Z" fill="none" stroke="#007aff" stroke-linecap="butt" stroke-width="8" vectornator:layerName="Oval 1"/><path d="M712.507 2709.08c-36.053-62.45-46.447-123.94-23.215-137.36 23.232-13.41 71.292 26.34 107.346 88.79 36.053 62.44 46.447 123.94 23.215 137.35-23.232 13.42-71.292-26.33-107.346-88.78Z" fill="none" stroke="#007aff" stroke-linecap="butt" stroke-width="8" vectornator:layerName="Oval 2"/><path d="M754.476 2636.22c72.107-.14 130.604 21.49 130.658 48.31.053 26.83-58.357 48.69-130.465 48.84-72.107.14-130.604-21.49-130.658-48.32-.054-26.82 58.357-48.69 130.465-48.83Z" fill="none" stroke="#007aff" stroke-linecap="butt" stroke-width="8" vectornator:layerName="Oval 3"/><path d="M732.202 2683.42c0-12.96 10.51-23.47 23.474-23.47s23.473 10.51 23.473 23.47-10.509 23.47-23.473 23.47-23.474-10.51-23.474-23.47" fill="#007aff" vectornator:layerName="Oval 4"/></g><path d="M609.859 2683.42c0-80.53 65.284-145.82 145.817-145.82 80.532 0 145.817 65.29 145.817 145.82s-65.285 145.82-145.817 145.82-145.817-65.29-145.817-145.82Z" fill="none" stroke="#007aff" stroke-linecap="butt" stroke-width="3" vectornator:layerName="Oval 1"/></g><path d="M755.656 2524.41c-20.452.16-40.508 3.85-59.5 11.53-37.283 15.06-68.034 44.37-84.906 80.87a158.3 158.3 0 0 0-13.125 45.03 160.5 160.5 0 0 0 1.031 49.72 158.5 158.5 0 0 0 19.219 52.13c10.093 17.22 23.432 32.48 39.125 44.81 16.529 12.99 35.631 22.68 55.906 28.25 17.255 4.74 35.306 6.51 53.156 5.31a158.7 158.7 0 0 0 46.219-10.18c36.706-14.12 67.462-42.08 85.094-77.22a158.4 158.4 0 0 0 14.969-47.04c2.9-18.98 2.335-38.46-1.625-57.24-4.18-19.84-12.234-38.78-23.531-55.6a159.8 159.8 0 0 0-35.032-37.37c-4.388-3.39-8.969-6.49-13.656-9.44a4.013 4.013 0 0 0-5.531 1.25 4.015 4.015 0 0 0 1.25 5.53c4.472 2.82 8.844 5.77 13.031 9 13.324 10.27 24.943 22.75 34.188 36.81 10.574 16.08 18.036 34.19 21.812 53.06 3.636 18.18 3.882 37.02.781 55.29a150.3 150.3 0 0 1-13.812 42.15c-16.744 33.38-45.955 59.94-80.813 73.35a150.8 150.8 0 0 1-43.875 9.65c-16.958 1.14-34.108-.52-50.5-5.03-19.251-5.29-37.368-14.48-53.062-26.81a152.2 152.2 0 0 1-37.781-43.66c-8.818-15.33-14.915-32.21-17.876-49.65a152.7 152.7 0 0 1 0-50.97c2.484-14.64 7.188-28.92 13.844-42.19 16.378-32.65 44.638-58.72 78.5-72.41 18.061-7.29 37.115-10.78 56.563-10.93a4.007 4.007 0 0 0 3.969-4.03 4 4 0 0 0-4.032-3.97" fill="#b465ff" vectornator:layerName="Curve 3"/></g></g></svg>